<svg xmlns="http://www.w3.org/2000/svg" height="50.0" width="90" version="1.1"
     xmlns:xlink="http://www.w3.org/1999/xlink">
    <rect fill="#fff" width="100%" height="100%"/>

    <path style="stroke:#000000;stroke-width:2.0;stroke-miterlimit:4.0;fill:none;"
          d="M 74.1111,25.0 C 87.6222,25.0 91.0,25.0 91.0,25.0"/>
    <path style="stroke:#000000;stroke-width:2.0;stroke-miterlimit:4.0;fill:none;" d="M 27.0,15.0 L 1.0,15.0"/>
    <path style="stroke:#000000;stroke-width:2.0;stroke-miterlimit:4.0;fill:none;" d="M 28.0,35.0 L 1.0,35.0"/>
    <path style="fill:#000000;"
          d="M 26.0,5.0 L 26.0,6.4286 26.0,43.5714 26.0,45.0 27.4286,45.0 46.4762,45.0 C 57.7441,45.0 66.4762,36.0 66.4762,25.0 66.4762,14.0 57.7441,5.0 46.4762,5.0 46.4762,5.0 46.4762,5.0 27.4286,5.0 L 26.0,5.0 Z M 28.8571,7.8571 C 36.8343,7.8571 41.9184,7.8571 44.0952,7.8571 45.2857,7.8571 45.881,7.8571 46.1786,7.8571 46.3274,7.8571 46.4092,7.8571 46.4464,7.8571 46.465,7.8571 46.4715,7.8571 46.4762,7.8571 56.2369,7.8571 63.1429,15.4971 63.1429,25.0 63.1429,34.5029 55.7607,42.1429 46.0,42.1429 L 28.8571,42.1429 28.8571,7.8571 Z"/>
    <path style="stroke:#000000;stroke-width:2.0;stroke-miterlimit:4.0;fill:none;"
          d="M 74.0,25.0 C 74.0,27.2088 72.2088,29.0 70.0,29.0 67.7912,29.0 66.0,27.2088 66.0,25.0 66.0,22.7912 67.7912,21.0 70.0,21.0 72.2088,21.0 74.0,22.7912 74.0,25.0 Z"/>

</svg>