<svg xmlns="http://www.w3.org/2000/svg" height="50" width="90" version="1.1"
     xmlns:xlink="http://www.w3.org/1999/xlink">
	<rect fill="#fff" width="100%" height="100%"/>

    <path stroke-width="2" stroke="#000" d="M 67,25 L 87,25 85,25"/>
    <path stroke-width="2" stroke="#000" d="M 28,15 L 2,15.0"/>
    <path stroke-width="2" stroke="#000" d="M 29,35 L 2,35.0"/>
    <path stroke-width="0" stroke="#000"
          d="M 21.625,5.0 L 23.625,7.4375 C 23.625,7.4375 29.2813,14.4375 29.2813,25.0 29.2813,35.5625 23.625,42.5625 23.625,42.5625 L 21.625,45.0 24.7813,45.0 38.7813,45.0 C 41.1893,45.0 46.4709,45.0245 52.4063,42.5938 58.3416,40.163 64.9428,35.2505 70.0938,25.7188 L 68.7813,25.0 70.0938,24.2813 C 59.7906,5.2156 43.5378,5.0 38.7813,5.0 L 24.7813,5.0 21.625,5.0 Z M 27.5,8.0 L 38.7813,8.0 C 43.4654,8.0 57.0681,7.8698 66.75,25.0 61.9832,33.4291 56.2287,37.6839 51.0313,39.8125 45.6706,42.0079 41.1893,42.0 38.7813,42.0 L 27,42.0 C 29.4048,38.8916 32.2813,32.9506 32.2813,25.0 32.2813,17.0266 29.3727,11.0998 27.5,8.0 Z"/>
</svg>