<?xml version="1.0" encoding="utf-8"?>
<svg xmlns="http://www.w3.org/2000/svg" height="50" width="90" version="1.1"
	 xmlns:xlink="http://www.w3.org/1999/xlink">
	<rect fill="#fff" width="100%" height="100%"/>
	<path d="m4.311501,15.40472l29.460474,0" stroke="#000000" stroke-linecap="round" stroke-miterlimit="4" stroke-width="2.5"/>
	<path d="m4.311501,35.57071l29.460474,0" stroke="#000000" stroke-linecap="round" stroke-miterlimit="4" stroke-width="2.5"/>
	<path d="m55.561192,25.487731l29.460507,0" stroke="#000000" stroke-linecap="round" stroke-miterlimit="4" stroke-width="2.5"/>
	<path d="m20.91201,45.976899c-0.032602,0.001406 9.761837,-1.922422 9.761837,-20.4892c0,-18.749516 -9.762578,-20.489232 -9.761837,-20.489168c15.76976,1.878047 26.040188,-0.78162 36.89356,20.4892c-8.092769,18.807628 -18.706133,19.70036 -36.89356,20.489168z" fill="#ffffff" fill-rule="evenodd" stroke="#000000" stroke-miterlimit="4" stroke-width="2.5"/>
	<path d="m68.476762,25.487731c0,2.877004 -2.352784,5.210203 -5.25401,5.210203c-2.901226,0 -5.25401,-2.333199 -5.25401,-5.210203c0,-2.877036 2.352784,-5.210235 5.25401,-5.210235c2.901226,0 5.25401,2.333199 5.25401,5.210235z" fill="#ffffff" fill-rule="evenodd" stroke="#000000" stroke-linecap="round" stroke-miterlimit="4" stroke-width="2.5"/>
	<path d="m11.218825,45.483188c-0.035695,0.001374 10.69239,-1.876099 10.69239,-19.995456c0,-18.297751 -10.693195,-19.995552 -10.69239,-19.995488" fill="none" stroke="#000000" stroke-linecap="round" stroke-miterlimit="4" stroke-width="2.5"/>
</svg>