<?xml version="1.0" encoding="utf-8"?>
<svg xmlns="http://www.w3.org/2000/svg" height="50" width="90" version="1.1" xmlns:xlink="http://www.w3.org/1999/xlink">
	<rect fill="#fff" width="100%" height="100%"/>
	<path style="stroke:#000000;stroke-width:2.0;stroke-miterlimit:4.0;fill:none;" d="M 66.0,25.0 L 91.0,25.0 M 26.3857,15.0 L 1.0,15.0 M 27.3621,35.0 L 1.0,35.0" />
	<path style="fill-rule:evenodd;fill:#000000;" d="M 20.25,42.0 C 18.6526,44.6444 18.0,45.0 18.0,45.0 L 14.3438,45.0 16.3438,42.5625 C 16.3438,42.5625 22.0,35.5624 22.0,25.0 22.0,14.4376 16.3438,7.4375 16.3438,7.4375 L 14.3438,5.0 18.0,5.0 C 18.7813,5.9375 19.4219,6.6563 20.2188,8.0 22.0915,11.0998 25.0,17.0267 25.0,25.0 25.0,32.9507 22.1033,38.8794 20.25,42.0 Z" />
	<path style="fill-rule:evenodd;fill:#000000;" d="M 20.0938,5.0 L 22.0938,7.4375 C 22.0938,7.4375 27.75,14.4375 27.75,25.0 27.75,35.5624 22.0938,42.5625 22.0938,42.5625 L 20.0938,45.0 37.25,45.0 C 39.6581,45.0 44.9397,45.0245 50.875,42.5938 56.8103,40.163 63.4115,35.2505 68.5625,25.7188 L 67.25,25.0 68.5625,24.2813 C 58.2594,5.2156 42.0066,5.0 37.25,5.0 L 20.0938,5.0 Z M 25.9688,8.0 L 37.25,8.0 C 41.9342,8.0 55.5369,7.8698 65.2188,25.0 60.452,33.4291 54.6975,37.6839 49.5,39.8125 44.1393,42.0079 39.6581,42.0 37.25,42.0 L 26.0,42.0 C 27.8736,38.8916 30.75,32.9506 30.75,25.0 30.75,17.0267 27.8415,11.0998 25.9688,8.0 Z" />
</svg>